<?xml version="1.0" standalone="no"?>
<!DOCTYPE svg PUBLIC "-//W3C//DTD SVG 20010904//EN"
 "http://www.w3.org/TR/2001/REC-SVG-20010904/DTD/svg10.dtd">
<svg version="1.0" xmlns="http://www.w3.org/2000/svg"
 width="326.000000pt" height="326.000000pt" viewBox="0 0 326.000000 326.000000"
 preserveAspectRatio="xMidYMid meet">

<g transform="translate(0.000000,326.000000) scale(0.100000,-0.100000)"
fill="#000000" stroke="none">
<path d="M430 2340 l0 -210 100 0 100 0 0 -587 0 -588 132 -132 133 -133 645
2 645 3 -580 2 -581 3 -132 139 -132 139 0 581 0 581 -100 0 -100 0 0 205 0
205 -65 0 -65 0 0 -210z"/>
<path d="M2020 1845 l0 -705 65 0 65 0 0 705 0 705 -65 0 -65 0 0 -705z"/>
</g>
</svg>
